<svg width="20" height="20" viewBox="0 0 20 20" fill="none" xmlns="http://www.w3.org/2000/svg">
<g opacity="0.8">
<path d="M15.8795 2.84757C16.4357 3.07803 16.9411 3.41583 17.3667 3.84166C17.7926 4.26729 18.1304 4.77265 18.3608 5.32887C18.5913 5.88508 18.7099 6.48126 18.7099 7.08333C18.7099 7.6854 18.5913 8.28158 18.3608 8.83779C18.1304 9.39401 17.7926 9.89937 17.3667 10.325L16.4834 11.2083L10.0001 17.6917L3.51672 11.2083L2.63339 10.325C1.77365 9.46525 1.29065 8.29919 1.29065 7.08333C1.29065 5.86747 1.77365 4.70141 2.63339 3.84166C3.49314 2.98192 4.6592 2.49892 5.87506 2.49892C7.09092 2.49892 8.25698 2.98192 9.11673 3.84166L10.0001 4.725L10.8834 3.84166C11.309 3.41583 11.8144 3.07803 12.3706 2.84757C12.9268 2.6171 13.523 2.49847 14.1251 2.49847C14.7271 2.49847 15.3233 2.6171 15.8795 2.84757Z" stroke="#282828" stroke-width="1.43" stroke-linecap="round" stroke-linejoin="round"/>
</g>
</svg>
