<svg width="20" height="20" viewBox="0 0 20 20" fill="none" xmlns="http://www.w3.org/2000/svg">
<g opacity="0.8" clip-path="url(#clip0_17_786)">
<path d="M7.49984 18.3333C7.96007 18.3333 8.33317 17.9602 8.33317 17.5C8.33317 17.0397 7.96007 16.6666 7.49984 16.6666C7.0396 16.6666 6.6665 17.0397 6.6665 17.5C6.6665 17.9602 7.0396 18.3333 7.49984 18.3333Z" stroke="#282828" stroke-width="1.66667" stroke-linecap="round" stroke-linejoin="round"/>
<path d="M16.6666 18.3333C17.1268 18.3333 17.4999 17.9602 17.4999 17.5C17.4999 17.0397 17.1268 16.6666 16.6666 16.6666C16.2063 16.6666 15.8333 17.0397 15.8333 17.5C15.8333 17.9602 16.2063 18.3333 16.6666 18.3333Z" fill="#282828" stroke="#282828" stroke-width="1.66667" stroke-linecap="round" stroke-linejoin="round"/>
<path d="M0.833374 0.833313H4.16671L6.40004 11.9916C6.47624 12.3753 6.68496 12.7199 6.98966 12.9652C7.29436 13.2105 7.67562 13.3408 8.06671 13.3333H16.1667C16.5578 13.3408 16.9391 13.2105 17.2438 12.9652C17.5484 12.7199 17.7572 12.3753 17.8334 11.9916L19.1667 4.99998H5.00004" stroke="#282828" stroke-width="1.66667" stroke-linecap="round" stroke-linejoin="round"/>
</g>
<defs>
<clipPath id="clip0_17_786">
<rect width="20" height="20" fill="white"/>
</clipPath>
</defs>
</svg>
